inDegrees=no
num_controls=7
num_derivatives=13
num_iterations=133
num_multipliers=7
num_parameters=0
num_slacks=7
num_states=26
objective=5.333535
objective_accelerations=0.471955
objective_balance=0.111652
objective_effort=0.343318
objective_height=4.324590
objective_ligament=0.082019
solver_duration=1518.907420
status=Solve_Succeeded
success=true
DataType=double
version=3
OpenSimVersion=4.4-2022-07-23-0e9fedc
endheader
time	/jointset/ground_pelvis/pelvis_tilt/value	/jointset/ground_pelvis/pelvis_tx/value	/jointset/ground_pelvis/pelvis_ty/value	/jointset/hip_l/hip_flexion_l/value	/jointset/hip_l/hip_adduction_l/value	/jointset/hip_l/hip_rotation_l/value	/jointset/back/lumbar_extension/value	/jointset/patellofemoral_l/patellar_flexion_l/value	/jointset/knee_l/knee_flexion_l/value	/jointset/knee_l/knee_adduction_l/value	/jointset/knee_l/knee_rotation_l/value	/jointset/ankle_l/ankle_angle_l/value	/jointset/subtalar_l/subtalar_angle_l/value	/jointset/ground_pelvis/pelvis_tilt/speed	/jointset/ground_pelvis/pelvis_tx/speed	/jointset/ground_pelvis/pelvis_ty/speed	/jointset/hip_l/hip_flexion_l/speed	/jointset/hip_l/hip_adduction_l/speed	/jointset/hip_l/hip_rotation_l/speed	/jointset/back/lumbar_extension/speed	/jointset/patellofemoral_l/patellar_flexion_l/speed	/jointset/knee_l/knee_flexion_l/speed	/jointset/knee_l/knee_adduction_l/speed	/jointset/knee_l/knee_rotation_l/speed	/jointset/ankle_l/ankle_angle_l/speed	/jointset/subtalar_l/subtalar_angle_l/speed	/forceset/tau_hip_flexion_l	/forceset/tau_hip_adduction_l	/forceset/tau_hip_rotation_l	/forceset/tau_knee_flexion_l	/forceset/tau_ankle_angle_l	/forceset/tau_subtalar_angle_l	/forceset/tau_lumbar_extension	lambda_cid13_p0	lambda_cid13_p1	lambda_cid13_p2	lambda_cid13_p3	lambda_cid13_p4	lambda_cid13_p5	lambda_cid14_p0	/jointset/ground_pelvis/pelvis_tilt/accel	/jointset/ground_pelvis/pelvis_tx/accel	/jointset/ground_pelvis/pelvis_ty/accel	/jointset/hip_l/hip_flexion_l/accel	/jointset/hip_l/hip_adduction_l/accel	/jointset/hip_l/hip_rotation_l/accel	/jointset/back/lumbar_extension/accel	/jointset/patellofemoral_l/patellar_flexion_l/accel	/jointset/knee_l/knee_flexion_l/accel	/jointset/knee_l/knee_adduction_l/accel	/jointset/knee_l/knee_rotation_l/accel	/jointset/ankle_l/ankle_angle_l/accel	/jointset/subtalar_l/subtalar_angle_l/accel	gamma_cid13_p0	gamma_cid13_p1	gamma_cid13_p2	gamma_cid13_p3	gamma_cid13_p4	gamma_cid13_p5	gamma_cid14_p0
0.5	-0.3327839579374151	-0.004600301641426827	0.8002612305565715	1.029429003840512	-0.3056176078572752	-0.04913499995090653	-0.3038222218314528	0.6655353242661081	0.6655353242660949	-0.1712945911804251	0.1745272141264211	0.1408090199017144	-0.02308758386868573	-0.4441002732392118	-0.1348228224337836	-0.3705289013673085	1.777496974554046	-0.02942486848893899	0.6104710228447565	-0.6378701973725055	1.725394403882987	1.725394403882986	-0.008954393999910699	8.087514076541121e-05	0.4974455209467956	0.05053715579584486	-0.183273156932983	0.03054378455745851	-0.02245888842339744	-0.2072825926853521	0.05345650249023105	0.04361589427551434	0.1804655218360831	-21.01262541911408	-19.21758883382531	7.178225547482318	3.995282316990409	-608.3043861974113	-60.55964659959304	-29.65052102670796	0.3506335976768855	0.34384599836246	-0.3112038128546786	-1.026770668240832	0.5312341188906489	-0.3486318781092815	1.306915290430654	-1.030345958443353	-1.030345958443331	-0.02895634932993257	-0.02049224819147672	-0.3366275623729935	0.5109794993101496	-2.399656945459607e-07	-1.05511841485404e-06	1.225765945525503e-06	1.760843346916781e-08	-2.718551155639604e-07	-6.702693234409061e-07	-2.663349112215176e-07
0.51	-0.3372065288582937	-0.005931135850898626	0.7965411344196148	1.047149478394435	-0.3058865463408643	-0.04304810423924522	-0.3101351292760806	0.6827349867498579	0.6827349867498504	-0.1713879044320992	0.1745275986984683	0.1457654901698553	-0.02255813907057119	-0.440361380088902	-0.1313293270242882	-0.3734153259278239	1.766360592612995	-0.0243754675738047	0.6068066297722762	-0.6246293478893059	1.714307262444567	1.714307262444567	-0.0096802854716163	1.257747467123658e-05	0.4937770935741574	0.05533902163202947	-0.1893821498007771	0.03166699481861008	-0.02254688017630735	-0.2085359803910905	0.05047868771207944	0.04420539292797173	0.1854677105030524	-22.11050227293444	-19.2008001284889	7.083509230509625	4.334335870736805	-611.4893450835971	-60.16764112592989	-28.673119704456	0.3933652220660028	0.3543171659017591	-0.2661723345654664	-1.192711605082128	0.4897748167135435	-0.3908344300467177	1.344961326793672	-1.182464583810612	-1.182464583810596	-0.0902762509223916	0.002195099962000722	-0.3926806964855149	0.4628527776645843	-2.900048589469502e-07	-8.842497583558629e-07	1.458279275419266e-06	7.162416577566008e-08	-3.071451348723187e-07	-6.394217868906876e-07	-2.883488992973003e-07
0.52	-0.341590141238	-0.007226591935543805	0.7927944119256696	1.064751461199341	-0.3061053944675242	-0.03700095073995736	-0.3163131699159695	0.6998168645497712	0.699816864549765	-0.1714876507394573	0.1745277390190031	0.1506831300899139	-0.0219810630837165	-0.4363085650042638	-0.1277471974684595	-0.3758541727649697	1.753798624750151	-0.01940679710311763	0.6025225803706226	-0.6108968364249397	1.701837467115375	1.701837467115374	-0.01024100513658431	3.202483979248345e-05	0.4896794513304678	0.06006339354389225	-0.1954911426685452	0.03279020507975042	-0.02263487192920691	-0.2097893680968339	0.04750087293391989	0.04479489158041561	0.1904698991700525	-23.21411072421643	-19.18661392372623	6.99332809020409	4.665856047446896	-614.7802591051483	-59.8502369287797	-27.6822322960148	0.4134179845425536	0.3615728276291696	-0.2216882681807796	-1.311887852599482	0.5150880300011926	-0.4725631439439543	1.405247686663993	-1.306876736597872	-1.306876736597879	0.004078012017575975	-0.002943241948346146	-0.4224705365832322	0.495480714445778	-2.963916797284796e-07	-7.71999269411012e-07	1.482683837319468e-06	9.522981603254058e-08	-3.158093121800164e-07	-5.827667584398462e-07	-2.828298808638692e-07
0.53	-0.3459317156656547	-0.008485826064707675	0.7890255844420437	1.082220772668581	-0.3062750175940228	-0.03099912635364676	-0.322351549453873	0.7167670605457785	0.7167670605457853	-0.1715925107801961	0.1745280490923157	0.1555576372980166	-0.02135721471524523	-0.4319561283489375	-0.1240880921256041	-0.3778328971666202	1.739830533231172	-0.01454114059034553	0.5977677775216188	-0.5967096991457248	1.687972909908314	1.687972909908311	-0.01072806770137078	3.08393425801396e-05	0.4851518777290089	0.06468102910613013	-0.2014345477696456	0.03365698263615482	-0.02271255640347674	-0.2112525531230598	0.0447722470431486	0.04526804945622885	0.1953287886302585	-24.24311254260847	-19.13345752759723	6.895212040107466	4.979531066668856	-618.0911136059411	-59.50739369433251	-26.68738324104487	0.4536544812267401	0.3698313492677806	-0.174264579142977	-1.474278375356934	0.4686531042344929	-0.4883692008807886	1.435852550016304	-1.460512553285758	-1.460512553286139	-0.07469218963238895	0.001128120976836283	-0.478428280162784	0.4410559491454366	-2.823988063760339e-07	-6.853974686696881e-07	1.417139925735742e-06	9.96933508758706e-08	-3.013649313361558e-07	-5.213482310013553e-07	-2.660957679038169e-07
